<?xml version="1.0" standalone="no"?>
<!DOCTYPE svg PUBLIC "-//W3C//DTD SVG 20010904//EN"
 "http://www.w3.org/TR/2001/REC-SVG-20010904/DTD/svg10.dtd">
<svg version="1.0" xmlns="http://www.w3.org/2000/svg"
 width="509.000000pt" height="185.000000pt" viewBox="0 0 509.000000 185.000000"
 preserveAspectRatio="xMidYMid meet">

<g transform="translate(0.000000,185.000000) scale(0.100000,-0.100000)"
fill="#000000" stroke="none">
<path d="M414 1841 c-109 -18 -184 -57 -244 -128 -43 -52 -114 -204 -134 -285
-21 -90 -22 -184 0 -192 26 -10 334 -7 353 4 12 6 21 26 25 59 5 38 13 55 34
71 27 22 29 22 373 15 405 -9 405 -9 546 85 159 106 262 238 250 317 -4 20
-10 40 -15 45 -12 12 -1119 20 -1188 9z"/>
<path d="M39 1139 c-18 -18 -20 -29 -15 -67 21 -153 160 -287 351 -337 47 -13
139 -18 417 -23 341 -7 358 -8 385 -28 33 -25 52 -98 37 -142 -19 -53 -37 -56
-434 -63 -394 -7 -397 -7 -515 -67 -84 -42 -201 -154 -233 -224 -27 -58 -29
-130 -5 -149 21 -18 730 -26 983 -10 254 15 338 42 436 139 100 98 148 229
148 407 -1 305 -156 537 -385 575 -38 6 -282 10 -606 10 -540 0 -543 0 -564
-21z"/>
<path d="M1891 870 c-41 -10 -82 -39 -98 -71 -7 -13 -13 -55 -13 -94 0 -84 18
-120 86 -168 l46 -32 -44 -3 c-92 -5 -91 -4 -86 -83 4 -49 12 -79 25 -97 61
-83 215 -95 294 -24 39 35 54 103 39 182 -12 67 -31 94 -99 142 l-53 37 68 3
69 3 0 67 c0 57 -4 70 -24 92 -26 28 -106 57 -150 55 -14 -1 -41 -5 -60 -9z
m71 -159 c2 -22 0 -37 -4 -35 -8 5 -11 74 -4 74 2 0 6 -18 8 -39z m8 -292 c0
-21 -4 -39 -10 -39 -5 0 -10 21 -10 46 0 27 4 43 10 39 6 -3 10 -24 10 -46z"/>
<path d="M3693 868 c-17 -6 -46 -26 -65 -45 l-33 -34 -3 -202 c-2 -177 0 -206
15 -237 26 -50 84 -80 157 -80 85 0 142 29 168 87 17 39 19 63 16 233 -3 209
-7 223 -77 263 -37 22 -133 30 -178 15z"/>
<path d="M4136 865 c-51 -18 -94 -60 -106 -104 -5 -20 -10 -113 -10 -206 0
-157 2 -174 23 -215 16 -33 34 -51 67 -67 52 -27 84 -29 123 -8 21 10 34 12
47 5 28 -15 87 -12 104 6 13 13 16 42 16 158 0 97 -4 146 -12 154 -8 8 -45 12
-100 12 l-88 0 0 78 c0 53 3 72 10 62 5 -8 10 -36 10 -61 0 -55 6 -59 90 -59
79 0 94 15 85 84 -14 103 -49 145 -136 165 -57 14 -76 13 -123 -4z m84 -436
c0 -27 -4 -49 -10 -49 -5 0 -10 25 -10 56 0 34 4 53 10 49 6 -3 10 -28 10 -56z"/>
<path d="M2930 848 c-78 -40 -85 -63 -85 -283 0 -220 7 -242 85 -283 38 -20
56 -23 113 -19 73 5 103 20 141 71 20 26 21 41 21 224 0 180 -2 200 -20 232
-27 47 -94 80 -160 80 -33 0 -66 -8 -95 -22z"/>
<path d="M2187 854 c-13 -13 -8 -569 5 -582 17 -17 142 -16 157 2 8 9 11 96 9
297 l-3 284 -80 3 c-45 1 -84 0 -88 -4z m143 -289 l0 -265 -60 0 -60 0 0 265
0 265 60 0 60 0 0 -265z"/>
<path d="M2437 854 c-13 -13 -8 -569 5 -582 12 -12 95 -16 122 -6 13 5 16 23
17 83 l1 76 24 -75 c14 -41 30 -78 37 -82 21 -13 124 -9 136 6 8 9 11 96 9
297 l-3 284 -69 3 c-82 4 -85 0 -87 -83 l-1 -60 -23 70 -23 70 -69 3 c-38 1
-72 0 -76 -4z"/>
<path d="M3277 854 c-13 -13 -8 -569 5 -582 17 -17 229 -17 246 0 16 16 16
110 0 126 -7 7 -27 12 -45 12 l-33 0 -2 223 -3 222 -80 3 c-45 1 -84 0 -88 -4z
m145 -246 l3 -223 43 -3 c42 -3 42 -3 42 -43 l0 -39 -105 0 -105 0 0 265 0
265 60 0 60 0 2 -222z"/>
<path d="M4450 837 c0 -12 20 -93 45 -179 40 -141 45 -168 45 -262 0 -126 6
-136 85 -136 86 0 85 -2 85 114 0 93 4 114 54 280 30 98 52 185 49 193 -4 10
-24 13 -82 11 l-76 -3 -9 -47 c-10 -51 -26 -65 -26 -24 0 14 -4 36 -10 50 -9
25 -13 26 -85 26 -71 0 -75 -1 -75 -23z"/>
<path d="M4899 856 c-2 -2 1 -127 8 -278 6 -150 12 -283 12 -295 1 -22 5 -23
70 -23 l68 0 6 108 c4 59 10 194 13 300 l7 192 -90 0 c-49 0 -92 -2 -94 -4z
m148 -148 c-4 -68 -10 -189 -13 -270 l-7 -148 -37 0 -37 0 -7 108 c-3 59 -9
180 -12 270 l-7 162 63 0 63 0 -6 -122z"/>
<path d="M1789 161 c-46 -47 -31 -125 28 -150 21 -8 400 -11 1480 -9 l1451 3
26 24 c39 37 37 100 -5 135 l-31 26 -1460 0 -1460 0 -29 -29z m2959 -17 c26
-18 29 -60 8 -90 -14 -19 -42 -19 -1466 -22 l-1451 -2 -24 24 c-30 30 -32 59
-5 86 20 20 33 20 1468 20 1294 0 1450 -2 1470 -16z"/>
<path d="M4927 123 c-66 -74 48 -169 118 -98 52 51 19 115 -58 115 -29 0 -49
-6 -60 -17z m103 -28 c29 -36 -24 -79 -69 -55 -20 10 -29 49 -14 63 12 13 70
7 83 -8z"/>
</g>
</svg>
